<svg xmlns="http://www.w3.org/2000/svg" viewBox="0 0 400 260" width="400" height="260" role="img" aria-label="Ilustración de frente del coche de prácticas con doble mando y rótulo de la autoescuela">
  <rect width="400" height="260" fill="#12151A"/>
  <g stroke="#1A1E25" stroke-width="1">
    <path d="M0 40h400M0 80h400M0 120h400M0 160h400M0 200h400M40 0v260M80 0v260M120 0v260M160 0v260M200 0v260M240 0v260M280 0v260M320 0v260M360 0v260"/>
  </g>
  <path d="M40 216h320" stroke="#2C323C" stroke-width="3"/>
  <rect x="150" y="40" width="100" height="18" rx="4" fill="#23E5FF"/>
  <text x="200" y="54" text-anchor="middle" fill="#0B0D10" font-family="Saira Condensed, Arial Narrow, sans-serif" font-size="13" font-weight="700" letter-spacing="2">AUTOESCUELA</text>
  <path d="M188 58h24v10h-24z" fill="#39414D"/>
  <path d="M112 200 L112 122 C 112 110, 124 96, 140 92 L150 70 C 154 62, 162 58, 172 58 L228 58 C 238 58, 246 62, 250 70 L260 92 C 276 96, 288 110, 288 122 L288 200 Z"
        fill="#1F2630" stroke="#4A5563" stroke-width="3"/>
  <path d="M150 92 L158 72 C 160 68, 164 66, 170 66 L230 66 C 236 66, 240 68, 242 72 L250 92 Z" fill="#0E1116" stroke="#4A5563" stroke-width="2"/>
  <path d="M200 66v26" stroke="#4A5563" stroke-width="2"/>
  <rect x="124" y="126" width="34" height="18" rx="5" fill="#E7ECF2" opacity=".85"/>
  <rect x="242" y="126" width="34" height="18" rx="5" fill="#E7ECF2" opacity=".85"/>
  <rect x="160" y="152" width="80" height="16" rx="4" fill="#0E1116" stroke="#4A5563" stroke-width="2"/>
  <rect x="168" y="178" width="64" height="12" rx="3" fill="#0E1116" stroke="#4A5563" stroke-width="2"/>
  <rect x="98" y="96" width="18" height="12" rx="3" fill="#39414D"/>
  <rect x="284" y="96" width="18" height="12" rx="3" fill="#39414D"/>
  <rect x="104" y="196" width="26" height="22" rx="4" fill="#0B0D10"/>
  <rect x="270" y="196" width="26" height="22" rx="4" fill="#0B0D10"/>
  <text x="24" y="238" fill="#7C8593" font-family="Space Grotesk, sans-serif" font-size="14" letter-spacing="1">COCHE DE PRÁCTICAS · DOBLE MANDO</text>
</svg>
